HIERARCHY
ROOT Hips
{
	OFFSET -0.001795 -0.223333 0.028219
	CHANNELS 6 Xposition Yposition Zposition Zrotation Yrotation Xrotation 
	JOINT LeftUpLeg
	{
		OFFSET 0.069520 -0.091406 -0.006815
		CHANNELS 3 Zrotation Yrotation Xrotation
		JOINT LeftLeg
		{
			OFFSET 0.034277 -0.375199 -0.004496
			CHANNELS 3 Zrotation Yrotation Xrotation
			JOINT LeftFoot
			{
				OFFSET -0.013596 -0.397961 -0.043693
				CHANNELS 3 Zrotation Yrotation Xrotation
				JOINT LeftToe
				{
					OFFSET 0.026358 -0.055791 0.119288
					CHANNELS 3 Zrotation Yrotation Xrotation
					End Site
					{
						OFFSET 0.000000 0.000000 0.000000
					}
				}
			}
		}
	}
	JOINT RightUpLeg
	{
		OFFSET -0.067670 -0.090522 -0.004320
		CHANNELS 3 Zrotation Yrotation Xrotation
		JOINT RightLeg
		{
			OFFSET -0.038290 -0.382569 -0.008850
			CHANNELS 3 Zrotation Yrotation Xrotation
			JOINT RightFoot
			{
				OFFSET 0.015774 -0.398415 -0.042312
				CHANNELS 3 Zrotation Yrotation Xrotation
				JOINT RightToe
				{
					OFFSET -0.025372 -0.048144 0.123348
					CHANNELS 3 Zrotation Yrotation Xrotation
					End Site
					{
						OFFSET 0.000000 0.000000 0.000000
					}
				}
			}
		}
	}
	JOINT Spine
	{
		OFFSET -0.002533 0.108963 -0.026696
		CHANNELS 3 Zrotation Yrotation Xrotation
		JOINT Spine1
		{
			OFFSET 0.005487 0.135180 0.001092
			CHANNELS 3 Zrotation Yrotation Xrotation
			JOINT Spine2
			{
				OFFSET 0.001457 0.052922 0.025425
				CHANNELS 3 Zrotation Yrotation Xrotation
				JOINT Neck
				{
					OFFSET -0.002778 0.213870 -0.042857
					CHANNELS 3 Zrotation Yrotation Xrotation
					JOINT Head
					{
						OFFSET 0.005152 0.064970 0.051349
						CHANNELS 3 Zrotation Yrotation Xrotation
						End Site
						{
							OFFSET 0.000000 0.000000 0.000000
						}
					}
				}
				JOINT LeftShoulder
				{
					OFFSET 0.078845 0.121749 -0.034090
					CHANNELS 3 Zrotation Yrotation Xrotation
					JOINT LeftArm
					{
						OFFSET 0.090977 0.030469 -0.008868
						CHANNELS 3 Zrotation Yrotation Xrotation
						JOINT LeftForeArm
						{
							OFFSET 0.259612 -0.012772 -0.027456
							CHANNELS 3 Zrotation Yrotation Xrotation
							JOINT LeftHand
							{
								OFFSET 0.249234 0.008986 -0.001171
								CHANNELS 3 Zrotation Yrotation Xrotation
								End Site
								{
									OFFSET 0.000000 0.000000 0.000000
								}
							}
						}
					}
				}
				JOINT RightShoulder
				{
					OFFSET -0.081759 0.118833 -0.038615
					CHANNELS 3 Zrotation Yrotation Xrotation
					JOINT RightArm
					{
						OFFSET -0.096012 0.032551 -0.009143
						CHANNELS 3 Zrotation Yrotation Xrotation
						JOINT RightForeArm
						{
							OFFSET -0.253742 -0.013329 -0.021401
							CHANNELS 3 Zrotation Yrotation Xrotation
							JOINT RightHand
							{
								OFFSET -0.255298 0.007772 -0.005559
								CHANNELS 3 Zrotation Yrotation Xrotation
								End Site
								{
									OFFSET 0.000000 0.000000 0.000000
								}
							}
						}
					}
				}
			}
		}
	}
}
MOTION
Frames: 12
Frame Time: 0.050000
0.000000 0.954795 0.000000 -1.742705 -6.702801 5.811148 2.596581 -0.369428 -4.775520 0.104496 0.207946 -6.074849 -0.475813 2.788380 11.332790 0.000000 0.000000 0.000000 -0.422394 0.732545 -7.426105 -0.368892 -0.062084 -2.235874 1.249184 -3.284021 11.390657 0.000000 0.000000 0.000000 0.308845 0.086612 -1.998744 -0.920561 0.441589 -6.726927 1.880261 -1.966278 7.240035 0.735198 0.011680 -15.496544 0.000000 0.000000 0.000000 -13.922442 4.504527 -2.437130 -47.327278 -6.169158 -3.547582 -1.322371 -11.341479 0.644510 0.000000 0.000000 0.000000 11.257596 -2.871042 -3.136799 51.507088 4.646074 -3.228971 -3.221572 10.680068 0.017464 0.000000 0.000000 0.000000
0.000788 0.954071 -0.000022 -1.853432 -6.522340 6.407029 2.868196 -0.387728 -5.095315 -0.158941 0.241119 -6.486883 -0.885094 2.227240 11.722162 0.000000 0.000000 0.000000 -0.855024 0.779901 -7.965496 -0.034116 -0.083743 -2.185250 1.137233 -3.546417 11.562573 0.000000 0.000000 0.000000 0.084209 0.104754 -2.330858 -0.686313 0.348560 -6.434351 2.156534 -2.046305 6.011222 1.324484 -0.258383 -16.664349 0.000000 0.000000 0.000000 -13.916336 4.637959 -3.357952 -48.665840 -6.879736 -3.246634 -0.996128 -11.771674 0.642916 0.000000 0.000000 0.000000 11.967755 -3.778046 -3.702113 51.587185 3.351682 -3.649268 -3.018246 12.902557 0.011322 0.000000 0.000000 0.000000
0.001292 0.953217 -0.000258 -1.811635 -6.107922 6.150015 2.898360 -0.385219 -5.065394 0.147713 0.161112 -4.976391 -1.395008 0.874856 10.052117 0.000000 0.000000 0.000000 -0.787307 0.795750 -8.118343 0.446152 -0.096810 -1.573065 0.825240 -3.585771 10.398344 0.000000 0.000000 0.000000 0.475534 0.079594 -1.923824 -0.562748 0.318733 -7.942325 1.793198 -2.012692 6.898619 1.715282 -0.514971 -16.087132 0.000000 0.000000 0.000000 -13.602341 3.504367 -2.598800 -49.636738 -6.880982 -3.344803 0.448727 -11.754181 0.500144 0.000000 0.000000 0.000000 12.175694 -2.758197 -3.224882 53.237988 2.093621 -4.438297 -4.602053 13.634898 -0.141379 0.000000 0.000000 0.000000
0.001512 0.952761 -0.000347 -2.022712 -5.424817 6.690150 3.733056 -0.408807 -5.793029 -0.692018 0.255463 -5.992340 -2.296044 0.101401 12.065110 0.000000 0.000000 0.000000 -0.713281 0.876668 -8.908293 0.606690 -0.114161 -1.698891 0.743906 -4.003160 11.206113 0.000000 0.000000 0.000000 0.334875 0.119467 -2.729718 -0.609507 0.338941 -6.920293 2.341773 -3.013123 5.844619 1.513750 -0.454055 -15.935189 0.000000 0.000000 0.000000 -13.467465 3.966833 -2.039742 -50.435833 -7.065733 -3.190530 0.035560 -11.933422 0.555229 0.000000 0.000000 0.000000 12.373253 -2.345416 -3.205456 52.781403 1.924019 -4.351098 -4.266369 13.818725 -0.134879 0.000000 0.000000 0.000000
0.001508 0.952443 -0.000455 -2.012303 -5.233778 6.219978 3.603483 -0.380717 -5.271180 -0.439981 0.241142 -6.058502 -2.346810 0.019400 11.992131 0.000000 0.000000 0.000000 -0.653742 0.830616 -8.440756 0.788130 -0.139747 -2.051221 0.345158 -4.819856 11.381752 0.000000 0.000000 0.000000 0.628360 0.094990 -2.289719 -0.747879 0.393189 -6.534429 2.430860 -2.598874 5.478166 1.251895 -0.252212 -15.724263 0.000000 0.000000 0.000000 -13.933639 3.343496 -1.273389 -50.551006 -7.782033 -2.897613 -0.165472 -12.505896 0.595645 0.000000 0.000000 0.000000 12.404046 -2.542846 -3.228989 53.738041 1.980035 -4.399979 -4.329327 15.213440 -0.158790 0.000000 0.000000 0.000000
0.001122 0.952211 -0.000498 -1.966849 -4.465149 6.256368 3.721737 -0.402291 -5.618248 -0.628114 0.247032 -5.922423 -2.820270 -0.610980 12.171572 0.000000 0.000000 0.000000 -0.774616 0.842538 -8.599671 0.705837 -0.133120 -1.994565 0.318277 -4.841400 11.577104 0.000000 0.000000 0.000000 0.313915 0.098881 -2.322471 -0.613789 0.351394 -6.502650 2.709972 -3.080044 5.893354 1.219092 -0.224641 -16.213987 0.000000 0.000000 0.000000 -14.222921 3.683292 -1.235003 -51.441292 -8.031925 -2.874731 -0.870142 -14.365331 0.790382 0.000000 0.000000 0.000000 12.327900 -2.126720 -3.034264 54.437759 2.327202 -4.369314 -3.340582 16.992874 -0.062505 0.000000 0.000000 0.000000
0.000366 0.952342 -0.000684 -1.983609 -3.859961 6.205066 3.741831 -0.417982 -5.846199 -0.395841 0.222923 -5.680101 -2.949812 -0.575080 12.624683 0.000000 0.000000 0.000000 -0.620358 0.797756 -8.109616 0.482612 -0.135360 -2.530993 -0.006518 -5.421464 11.684864 0.000000 0.000000 0.000000 0.150338 0.094829 -2.214325 -0.569269 0.340165 -6.234660 2.793174 -3.041996 5.707331 1.089764 -0.106246 -16.253948 0.000000 0.000000 0.000000 -14.851647 3.264995 -2.460607 -51.759319 -7.629657 -3.059777 -1.896641 -16.159428 1.035192 0.000000 0.000000 0.000000 12.919572 -1.838328 -2.966206 55.239613 2.179458 -4.474634 -2.384345 19.440664 0.066584 0.000000 0.000000 0.000000
-0.000479 0.952553 -0.000872 -1.999503 -2.876972 6.278256 3.715407 -0.450335 -6.275630 -0.339633 0.207458 -5.372022 -3.356494 -1.181705 12.474592 0.000000 0.000000 0.000000 -0.544583 0.800816 -8.124602 0.496227 -0.135426 -2.471641 -0.364557 -5.973970 11.691999 0.000000 0.000000 0.000000 -0.001353 0.096852 -2.247572 -0.476118 0.320682 -6.473894 2.489683 -3.138794 6.237932 1.852255 -0.520934 -16.298664 0.000000 0.000000 0.000000 -14.524515 2.765610 -2.548640 -52.862862 -7.474882 -3.195167 -3.401679 -17.436893 1.341874 0.000000 0.000000 0.000000 13.351326 -1.404120 -2.751885 55.632397 2.058012 -4.599440 -0.229732 22.969894 0.481863 0.000000 0.000000 0.000000
-0.001255 0.952992 -0.001170 -2.148478 -2.306791 6.427099 3.847995 -0.490612 -6.988413 -0.349291 0.182617 -4.616163 -3.585411 -1.389328 12.718265 0.000000 0.000000 0.000000 -0.335207 0.793292 -7.992396 0.381247 -0.133257 -2.639548 -0.590526 -6.355863 11.773333 0.000000 0.000000 0.000000 -0.023503 0.100130 -2.335114 -0.573529 0.366108 -6.303553 2.606441 -2.755048 6.230214 1.977713 -0.520967 -16.381615 0.000000 0.000000 0.000000 -14.578031 2.041128 -2.003039 -53.413563 -6.545140 -3.619201 -5.467055 -18.864941 1.780474 0.000000 0.000000 0.000000 13.462707 -1.264871 -2.589240 55.782722 2.455922 -4.420552 2.960846 28.465130 1.361837 0.000000 0.000000 0.000000
-0.001800 0.953151 -0.001610 -2.259643 -1.855690 6.486100 3.866844 -0.504353 -7.180427 -0.106158 0.158708 -4.428685 -3.937121 -1.822759 12.934407 0.000000 0.000000 0.000000 -0.353471 0.793253 -7.994777 0.673470 -0.147969 -2.404142 -1.093531 -7.133520 11.382231 0.000000 0.000000 0.000000 0.025764 0.112419 -2.651379 -0.572662 0.368317 -6.012780 2.293787 -2.081380 6.419989 2.458223 -0.694407 -16.580975 0.000000 0.000000 0.000000 -14.249630 1.626885 -1.362369 -54.156605 -5.930074 -3.923429 -6.656094 -20.502851 2.134064 0.000000 0.000000 0.000000 13.356716 -0.317286 -1.955075 55.339722 3.763869 -3.781632 6.522885 35.799328 2.899508 0.000000 0.000000 0.000000
-0.002166 0.953325 -0.002234 -2.213651 -1.105360 6.459740 3.906381 -0.529404 -7.554113 -0.376547 0.163647 -3.993421 -4.362752 -2.315294 13.186970 0.000000 0.000000 0.000000 -0.446997 0.788834 -7.978807 0.674349 -0.143245 -2.228892 -1.492572 -7.734143 11.145659 0.000000 0.000000 0.000000 -0.063891 0.112266 -2.660528 -0.949715 0.527994 -5.678955 2.493336 -1.172537 6.217045 2.680442 -0.684075 -16.646967 0.000000 0.000000 0.000000 -14.151565 0.724969 -2.421055 -54.206707 -5.173383 -4.251102 -7.994016 -22.147066 2.525058 0.000000 0.000000 0.000000 13.742055 0.887491 -1.207837 54.543892 7.354647 -2.077523 6.256814 42.817173 3.618655 0.000000 0.000000 0.000000
-0.002438 0.953574 -0.003102 -2.343765 -1.524488 6.150891 4.197548 -0.512700 -7.602379 -0.288833 0.126274 -3.018460 -4.351060 -2.436555 12.992814 0.000000 0.000000 0.000000 -0.515225 0.797093 -8.081929 0.911218 -0.130829 -1.246859 -1.997349 -8.553681 10.395526 0.000000 0.000000 0.000000 0.017078 0.115305 -2.729920 -1.611078 0.791965 -5.246735 2.732004 0.542118 6.181806 3.338864 -0.935141 -16.547775 0.000000 0.000000 0.000000 -13.911078 0.157364 -2.468809 -54.087791 -4.893345 -4.359341 -8.735203 -23.322983 2.750920 0.000000 0.000000 0.000000 13.182993 3.815886 0.504359 53.699352 14.566655 1.173061 0.138332 49.325394 1.832008 0.000000 0.000000 0.000000
